<svg width="800" height="120" viewBox="0 0 800 120" fill="none" xmlns="http://www.w3.org/2000/svg">
<rect width="800" height="120" fill="#263650"/>
<path d="M48.24 39.84C47.28 39.5733 46.5867 39.44 46.16 39.44C45.5733 39.44 44.64 39.7067 43.36 40.24C42.1333 40.7733 41.3867 41.52 41.12 42.48C40.8533 43.44 40.6933 46.16 40.64 50.64L40.48 58.72L45.04 58.56L49.6 58.48L51.68 56.32C53.1733 54.72 53.9467 53.8133 54 53.6C54.16 53.2267 54.3467 53.04 54.56 53.04C54.7733 53.04 54.88 52.8533 54.88 52.48C54.88 52.16 55.04 51.8933 55.36 51.68C55.7867 51.4667 56.4 50.1333 57.2 47.68C57.4133 47.2533 57.52 46.8533 57.52 46.48C57.52 46.16 57.28 45.52 56.8 44.56C56.2133 43.3333 55.7067 42.5067 55.28 42.08C54.9067 41.6533 54.4267 41.44 53.84 41.44C53.36 41.44 52.9333 41.3333 52.56 41.12C52.24 40.8533 51.8667 40.6933 51.44 40.64C50.6933 40.4267 50.24 40.32 50.08 40.32C50.0267 40.32 49.4133 40.16 48.24 39.84ZM39.44 31.6C39.8667 31.4933 40.1333 31.44 40.24 31.44C40.7733 31.44 41.2 31.8133 41.52 32.56C41.7867 33.2533 41.92 33.7867 41.92 34.16C41.92 34.5333 41.8133 34.8 41.6 34.96C41.3333 35.12 41.2 35.4933 41.2 36.08C41.2533 36.6133 41.4133 36.88 41.68 36.88C42 36.88 42.48 36.6933 43.12 36.32C43.76 36 44.9867 35.84 46.8 35.84C47.9733 35.84 48.64 35.9467 48.8 36.16C48.8533 36.2133 49.1733 36.32 49.76 36.48C50.4 36.64 51.0133 36.8 51.6 36.96C52.1867 37.0667 52.48 37.1733 52.48 37.28C52.48 37.4933 52.8533 37.6 53.6 37.6C54.2933 37.6 55.3867 38.0533 56.88 38.96C58.3733 39.8133 59.12 40.4533 59.12 40.88C59.12 41.2533 59.2267 41.44 59.44 41.44C59.6533 41.44 60 42.1333 60.48 43.52C60.96 44.8 61.2 46.1333 61.2 47.52C61.2 48.32 61.0933 48.8 60.88 48.96C60.6667 49.0667 60.56 49.4933 60.56 50.24C60.56 50.9333 60.4533 51.3333 60.24 51.44C60.0267 51.5467 59.68 52.1067 59.2 53.12C58.9333 53.6533 58.64 54.1333 58.32 54.56C58.0533 54.9867 57.68 55.4667 57.2 56C56.7733 56.5333 56.48 56.88 56.32 57.04C56.0533 57.36 55.6533 57.76 55.12 58.24C54.5867 58.6667 53.9733 59.1467 53.28 59.68C52.64 60.16 52.2133 60.5067 52 60.72C51.2533 61.4133 50.4 61.8667 49.44 62.08C48.5333 62.2933 46.9867 62.4267 44.8 62.48C44.48 62.48 44.0533 62.48 43.52 62.48C41.5467 62.4267 40.56 62.5867 40.56 62.96C40.56 63.8133 40.6933 65.4133 40.96 67.76C41.28 70.1067 41.52 71.4133 41.68 71.68C41.8933 72.1067 41.84 72.6933 41.52 73.44C41.4133 73.6533 41.36 73.9467 41.36 74.32C41.36 74.5333 41.4133 74.8533 41.52 75.28C41.6267 75.7067 41.68 76.0533 41.68 76.32C41.68 76.6933 41.6267 77.0133 41.52 77.28C41.2 78.2933 40.9333 78.9333 40.72 79.2C40.5067 79.4133 40.1067 79.5467 39.52 79.6H39.12C38.6933 79.6 38.4267 79.36 38.32 78.88C38.2133 78.4 38.1067 77.2533 38 75.44C37.9467 73.84 37.76 71.92 37.44 69.68C37.12 67.3867 36.88 66.1067 36.72 65.84C36.5067 65.5733 36.4 64.3467 36.4 62.16C36.4 60.6667 36.48 59.7867 36.64 59.52C36.9067 59.1467 36.96 58.8267 36.8 58.56C36.64 58.2933 36.56 57.5467 36.56 56.32C36.56 54.72 36.6667 53.6 36.88 52.96C36.9867 52.5867 36.9333 52.32 36.72 52.16C36.4533 52 36.32 50.96 36.32 49.04C36.32 47.76 36.4 47.04 36.56 46.88C36.7733 46.7733 36.88 45.3867 36.88 42.72C36.88 40 37.0667 38.0533 37.44 36.88C37.8133 35.6 38.1067 34.4267 38.32 33.36C38.5333 32.2933 38.9067 31.7067 39.44 31.6ZM85.3519 55.6C84.6052 55.0667 83.5385 54.8 82.1519 54.8C81.0852 54.8 80.2852 54.9867 79.7519 55.36C78.9519 55.9467 77.9652 57.2 76.7919 59.12C75.6719 60.9867 75.1119 62.32 75.1119 63.12C75.1119 63.6533 74.9252 64.3467 74.5519 65.2C74.1785 66.0533 73.9385 67.44 73.8319 69.36C73.7785 69.7867 73.7519 70.32 73.7519 70.96C73.7519 71.8667 74.0452 72.8267 74.6319 73.84C75.1652 74.8533 75.7785 75.4667 76.4719 75.68C76.6319 75.7333 76.9252 75.76 77.3519 75.76C79.3785 75.76 80.8452 75.36 81.7519 74.56C83.1919 73.28 84.3652 72.32 85.2719 71.68C85.5385 71.52 85.7785 70.64 85.9919 69.04C86.2585 67.44 86.3919 65.9467 86.3919 64.56C86.3919 63.4933 86.4985 62.6667 86.7119 62.08C86.9785 61.4933 87.1119 60.5333 87.1119 59.2C87.1119 57.6 86.5252 56.4 85.3519 55.6ZM80.5519 51.2C80.8719 51.1467 81.3252 51.12 81.9119 51.12C84.6319 51.12 86.8985 52 88.7119 53.76C89.4052 54.4533 89.9919 54.72 90.4719 54.56C90.5252 54.56 90.6052 54.56 90.7119 54.56C90.8185 54.5067 90.8985 54.48 90.9519 54.48C91.8585 54.48 92.6052 54.9333 93.1919 55.84C93.7785 56.7467 94.0719 57.76 94.0719 58.88C94.0719 59.2533 94.0452 59.5467 93.9919 59.76C93.2985 63.76 92.6852 66.1067 92.1519 66.8C91.7785 67.3333 91.5919 67.8133 91.5919 68.24C91.5919 68.6133 91.3519 69.2 90.8719 70C90.4452 70.8 90.2052 71.2533 90.1519 71.36C90.0985 71.4667 90.0719 71.68 90.0719 72C90.0719 72.64 90.1785 73.3867 90.3919 74.24C90.6585 75.0933 90.8985 75.5467 91.1119 75.6H91.2719C91.6985 75.6 92.4452 75.3333 93.5119 74.8C94.5785 74.2133 95.2185 73.76 95.4319 73.44C95.5919 73.12 95.8852 72.96 96.3119 72.96C97.2185 72.96 97.8052 73.3333 98.0719 74.08C98.1252 74.1867 98.1519 74.3467 98.1519 74.56C98.1519 75.7333 97.1919 76.9333 95.2719 78.16C94.2052 78.9067 93.0319 79.28 91.7519 79.28C89.7252 79.28 88.2585 78.48 87.3519 76.88C86.8719 76.08 86.3919 75.7067 85.9119 75.76C85.7519 75.76 85.6719 75.8667 85.6719 76.08C85.6719 76.2933 85.2985 76.6133 84.5519 77.04C82.8452 77.8933 81.7785 78.5067 81.3519 78.88C80.9785 79.1467 80.0452 79.3867 78.5519 79.6C78.4452 79.6 78.2585 79.6267 77.9919 79.68C77.7785 79.68 77.6185 79.68 77.5119 79.68C75.8585 79.68 74.1785 78.9067 72.4719 77.36C71.7785 76.72 71.1919 75.6533 70.7119 74.16C70.2319 72.6133 69.9919 71.04 69.9919 69.44C69.9919 69.28 69.9919 69.0667 69.9919 68.8C70.0452 68.5333 70.0719 68.3467 70.0719 68.24C70.1785 67.0667 70.3385 66.16 70.5519 65.52C70.8185 64.88 71.0052 64.2133 71.1119 63.52C71.2719 62.4533 71.5119 61.76 71.8319 61.44C72.1519 61.1733 72.3119 60.8 72.3119 60.32C72.3119 59.9467 72.6585 59.04 73.3519 57.6C74.0985 56.16 74.5785 55.44 74.7919 55.44C74.8985 55.44 75.0585 55.2267 75.2719 54.8C75.4319 54.2667 76.1519 53.5733 77.4319 52.72C78.7652 51.8133 79.8052 51.3067 80.5519 51.2ZM127.185 35.76C127.185 35.5467 127.665 35.44 128.625 35.44C129.372 35.44 129.878 35.6 130.145 35.92C130.465 36.24 130.625 36.8 130.625 37.6C130.625 38.24 130.598 38.7467 130.545 39.12C130.385 40.1333 130.198 40.9067 129.985 41.44C129.772 41.9733 129.612 42.64 129.505 43.44C129.292 44.6133 129.132 45.2 129.025 45.2C128.865 45.2 128.625 45.84 128.305 47.12C128.038 48.4533 127.772 49.1733 127.505 49.28C127.292 49.3867 127.185 49.6267 127.185 50C127.185 50.3733 127.878 50.4533 129.265 50.24C130.705 50.0267 131.505 49.8667 131.665 49.76C131.932 49.4933 132.892 49.3067 134.545 49.2C135.612 49.0933 136.198 49.04 136.305 49.04C136.785 49.04 137.105 49.28 137.265 49.76C137.372 49.9733 137.425 50.3467 137.425 50.88C137.425 51.7333 137.158 52.24 136.625 52.4C136.145 52.5067 135.318 52.6133 134.145 52.72C132.812 52.8267 131.318 53.1733 129.665 53.76C128.652 54.1333 127.825 54.32 127.185 54.32C126.225 54.32 125.585 54.48 125.265 54.8C124.945 55.0667 124.652 55.68 124.385 56.64C124.118 57.8133 123.825 58.56 123.505 58.88C123.185 59.2 123.025 59.6267 123.025 60.16C123.025 60.8 122.892 61.3333 122.625 61.76C121.505 63.7867 120.865 66.3467 120.705 69.44C120.652 70.1333 120.625 70.88 120.625 71.68C120.625 72.48 120.865 73.12 121.345 73.6C122.092 74.3467 122.892 74.72 123.745 74.72C123.905 74.72 124.358 74.6667 125.105 74.56C126.012 74.3467 127.105 73.6533 128.385 72.48C129.665 71.2533 130.438 70.1867 130.705 69.28C130.972 68.4267 131.265 67.9467 131.585 67.84C131.798 67.7867 132.012 67.1467 132.225 65.92C132.332 65.0133 132.625 64.2667 133.105 63.68C133.585 63.0933 134.092 62.8 134.625 62.8H134.785L134.945 62.88C135.638 63.04 135.985 63.7867 135.985 65.12C135.985 66.2933 135.638 67.52 134.945 68.8C134.465 69.6533 134.225 70.1867 134.225 70.4C134.225 70.6667 133.612 71.5467 132.385 73.04C131.158 74.5333 130.172 75.5733 129.425 76.16C127.985 77.3333 126.305 78 124.385 78.16C124.012 78.2133 123.532 78.24 122.945 78.24C122.252 78.24 121.532 78.0533 120.785 77.68C119.932 77.2 119.105 76.5333 118.305 75.68C117.505 74.8267 117.105 74.16 117.105 73.68C117.105 72.8267 116.838 72.4 116.305 72.4C115.825 72.4 115.212 72.6667 114.465 73.2C113.345 73.9467 112.625 74.48 112.305 74.8C111.292 75.76 110.065 76.24 108.625 76.24C107.558 76.24 107.025 75.92 107.025 75.28C107.025 74.8 107.398 74.1867 108.145 73.44C108.892 72.64 109.558 72.1333 110.145 71.92C110.572 71.8133 110.785 71.6267 110.785 71.36C110.785 71.1467 110.972 71.04 111.345 71.04C112.198 71.04 113.772 69.3067 116.065 65.84C117.025 64.3467 117.692 63.1467 118.065 62.24C118.492 61.28 118.865 59.8667 119.185 58C119.292 57.2533 119.345 56.8 119.345 56.64C119.345 55.9467 119.185 55.6 118.865 55.6C118.598 55.6 118.358 55.7067 118.145 55.92C117.772 56.24 117.292 56.4 116.705 56.4C116.278 56.4 115.932 56.3733 115.665 56.32C114.598 56.2133 113.852 56.0267 113.425 55.76C113.052 55.44 112.865 54.9333 112.865 54.24C112.865 53.7067 112.998 53.3867 113.265 53.28C113.585 53.12 114.545 52.9333 116.145 52.72C117.478 52.6133 118.225 52.4267 118.385 52.16C118.492 51.9467 118.865 51.84 119.505 51.84C119.985 51.84 120.278 51.76 120.385 51.6C120.545 51.44 120.678 50.9333 120.785 50.08C120.998 48.9067 121.185 48.32 121.345 48.32C121.558 48.32 121.665 48.0533 121.665 47.52C121.665 46.9867 121.878 46.2667 122.305 45.36C122.732 44.4533 122.972 43.8667 123.025 43.6C123.185 43.1733 123.612 42.24 124.305 40.8C124.998 39.3067 125.425 38.24 125.585 37.6C125.798 36.8533 126.118 36.4267 126.545 36.32C126.972 36.1067 127.185 35.92 127.185 35.76ZM161.44 56.4C160.853 56.9867 160.56 57.36 160.56 57.52C160.56 57.68 160.32 58.08 159.84 58.72C159.413 59.36 159.2 59.7867 159.2 60C159.2 60.4267 159.067 60.7733 158.8 61.04C158.48 61.36 158.32 62.72 158.32 65.12C158.32 67.4667 158.56 69.12 159.04 70.08C159.52 70.9867 159.84 71.4667 160 71.52C160.16 71.5733 160.24 71.7867 160.24 72.16C160.24 72.5333 160.587 72.96 161.28 73.44C162.027 73.8667 162.827 74.1867 163.68 74.4C163.947 74.4533 164.373 74.48 164.96 74.48C166.667 74.48 167.867 74.1867 168.56 73.6C169.467 72.8533 170.347 72.0533 171.2 71.2C172.107 70.2933 172.56 69.76 172.56 69.6C172.56 69.28 172.667 69.12 172.88 69.12C173.147 69.12 173.493 68.72 173.92 67.92C174.453 67.12 175.013 66.7467 175.6 66.8C176.72 67.0133 177.28 67.68 177.28 68.8C177.28 69.1733 177.227 69.44 177.12 69.6C175.52 72.5867 174.4 74.08 173.76 74.08C173.6 74.08 173.093 74.5067 172.24 75.36C170.107 77.3333 167.707 78.32 165.04 78.32C161.573 78.32 158.853 76.9067 156.88 74.08C155.44 71.9467 154.613 69.3333 154.4 66.24C154.293 64.2133 154.133 63.2 153.92 63.2C153.813 63.2 153.067 63.84 151.68 65.12C150.133 66.6133 148.827 67.36 147.76 67.36C146.96 67.36 146.56 66.8 146.56 65.68C146.56 65.1467 147.36 64.1067 148.96 62.56C151.2 60.3733 153.2 58 154.96 55.44C155.493 54.64 156.48 53.84 157.92 53.04C159.36 52.1867 160.613 51.68 161.68 51.52C161.84 51.4667 162.16 51.44 162.64 51.44C164.773 51.44 165.973 51.6267 166.24 52C166.293 52.1067 166.64 52.2667 167.28 52.48C167.6 52.5333 168.16 52.8267 168.96 53.36C169.547 53.7333 169.68 54.32 169.36 55.12C168.987 56.1333 168.453 56.64 167.76 56.64C167.28 56.64 166.667 56.4533 165.92 56.08C165.013 55.6 164.213 55.36 163.52 55.36C162.773 55.36 162.08 55.7067 161.44 56.4ZM210.246 42.72C210.246 42.56 210.886 41.7867 212.166 40.4C213.499 39.0133 214.166 38.2133 214.166 38C214.166 37.7333 214.379 37.3867 214.806 36.96C215.072 36.6933 215.446 36.08 215.926 35.12C216.459 34 216.992 33.0933 217.526 32.4C218.326 31.28 218.726 30.56 218.726 30.24C218.726 29.8667 218.859 29.5467 219.126 29.28C219.286 29.12 219.366 28.9867 219.366 28.88C219.366 28.7733 219.232 28.72 218.966 28.72C218.379 28.72 217.872 28.9333 217.446 29.36C216.859 29.9467 216.486 30.24 216.326 30.24C216.219 30.24 215.872 30.5867 215.286 31.28C214.699 31.9733 214.112 32.72 213.526 33.52C212.992 34.2667 212.699 34.6667 212.646 34.72C212.326 35.04 212.059 35.6533 211.846 36.56C211.632 37.4667 211.472 37.92 211.366 37.92C211.259 37.92 211.099 38.16 210.886 38.64C210.672 39.0667 210.459 39.5467 210.246 40.08C210.086 40.56 209.979 40.8267 209.926 40.88C209.712 41.0933 209.606 41.5467 209.606 42.24C209.606 42.88 209.712 43.2 209.926 43.2C210.139 43.2 210.246 43.04 210.246 42.72ZM202.886 58.72C202.886 57.7067 202.779 57.2 202.566 57.2C202.352 57.2 202.139 57.3867 201.926 57.76C201.712 58.1333 201.526 58.32 201.366 58.32C201.099 58.32 200.646 58.7467 200.006 59.6C199.472 60.4533 198.699 61.1467 197.686 61.68C197.152 62 196.299 62.6667 195.126 63.68C194.112 64.6933 192.379 65.8933 189.926 67.28C189.766 67.3867 189.552 67.5467 189.286 67.76C189.019 67.92 188.779 68.08 188.566 68.24C188.406 68.3467 188.219 68.4 188.006 68.4C187.579 68.4 187.152 68.0533 186.726 67.36C186.459 66.8267 186.326 66.4267 186.326 66.16C186.326 65.4667 186.779 64.9867 187.686 64.72C188.219 64.6133 188.539 64.3733 188.646 64C188.752 63.68 188.939 63.52 189.206 63.52C189.579 63.52 190.299 63.0133 191.366 62C191.739 61.6267 192.059 61.44 192.326 61.44C192.486 61.44 193.099 60.96 194.166 60C195.179 59.0933 195.899 58.5867 196.326 58.48C196.752 58.2667 196.966 58 196.966 57.68C196.966 57.36 197.126 57.2 197.446 57.2C197.712 57.2 198.112 56.9333 198.646 56.4C199.179 55.8133 199.446 55.3867 199.446 55.12C199.446 54.9067 199.579 54.8 199.846 54.8C200.166 54.8 200.459 54.5067 200.726 53.92C200.992 53.3867 201.632 52.56 202.646 51.44C203.286 50.7467 203.686 50.1867 203.846 49.76C204.059 49.3333 204.219 48.5333 204.326 47.36C204.432 46.2933 204.619 45.3867 204.886 44.64C205.206 43.8933 205.419 43.3067 205.526 42.88C205.632 42.4533 205.872 41.8933 206.246 41.2C206.619 40.4533 206.832 39.7067 206.886 38.96C206.939 38.16 207.126 37.5733 207.446 37.2C207.819 36.8267 208.086 36.4 208.246 35.92C208.566 34.96 209.072 34.08 209.766 33.28C209.926 33.12 210.139 32.72 210.406 32.08C210.512 31.6533 211.286 30.6667 212.726 29.12C214.166 27.5733 215.152 26.6667 215.686 26.4C216.112 26.1333 217.259 26 219.126 26C220.459 26 221.259 26.0533 221.526 26.16C221.792 26.2133 222.032 26.4533 222.246 26.88C222.566 27.4667 222.806 27.76 222.966 27.76C223.392 27.76 223.339 28.3733 222.806 29.6C222.752 29.76 222.566 30.1867 222.246 30.88C221.979 31.52 221.792 32 221.686 32.32C221.312 33.3867 220.992 33.9733 220.726 34.08C220.512 34.24 220.112 34.7467 219.526 35.6C218.992 36.4533 218.726 36.96 218.726 37.12C218.726 37.44 218.566 37.8933 218.246 38.48C217.926 39.0667 217.659 39.36 217.446 39.36C217.179 39.36 216.779 39.76 216.246 40.56C215.872 41.2 215.339 41.9467 214.646 42.8C214.059 43.3867 213.766 43.76 213.766 43.92C213.766 44.0267 213.472 44.2667 212.886 44.64C212.299 44.96 212.006 45.2267 212.006 45.44C212.006 45.8133 211.526 46.4267 210.566 47.28C209.126 48.5067 208.192 50.1867 207.766 52.32C206.699 58.5067 206.166 62.3733 206.166 63.92L205.846 66.96C205.632 68.9333 205.526 70.2933 205.526 71.04C205.526 71.4133 205.552 71.6267 205.606 71.68C206.032 72.2667 206.352 71.9467 206.566 70.72C206.619 70.0267 206.939 69.1733 207.526 68.16C207.952 67.2 208.166 66.6667 208.166 66.56C208.166 66.2933 208.486 65.5467 209.126 64.32C209.766 63.0933 210.166 62.48 210.326 62.48C210.539 62.48 210.646 62.24 210.646 61.76C210.646 61.28 210.859 60.96 211.286 60.8C211.712 60.5333 212.006 59.8933 212.166 58.88C212.272 57.92 212.459 57.3867 212.726 57.28C212.992 57.1733 213.366 56.5867 213.846 55.52C215.072 53.0133 216.486 51.76 218.086 51.76C218.566 51.76 219.072 51.8933 219.606 52.16C220.459 52.5333 221.046 53.1733 221.366 54.08C221.739 54.9867 221.926 56.4267 221.926 58.4V59.28C221.926 61.7867 221.792 63.3067 221.526 63.84C221.312 64.2133 221.206 65.2267 221.206 66.88C221.206 69.44 221.392 71.36 221.766 72.64C221.926 73.2267 222.032 73.6267 222.086 73.84C222.139 74.0533 222.219 74.2667 222.326 74.48C222.432 74.6933 222.512 74.8267 222.566 74.88C222.672 74.88 222.832 74.88 223.046 74.88H223.446C224.192 74.7733 224.566 74.6133 224.566 74.4C224.779 73.8133 225.312 73.8667 226.166 74.56C226.646 74.88 226.726 75.4667 226.406 76.32C225.872 77.8667 224.592 78.64 222.566 78.64C221.606 78.64 221.072 78.4267 220.966 78C220.859 77.4667 220.566 77.1467 220.086 77.04C219.126 76.72 218.352 74.5867 217.766 70.64C217.552 69.36 217.446 68.2667 217.446 67.36C217.446 66.7733 217.499 66.32 217.606 66C217.979 65.04 218.166 62.4533 218.166 58.24C218.166 56.8533 218.112 56.16 218.006 56.16C217.526 56.16 216.566 57.6267 215.126 60.56C214.539 61.7333 214.139 62.4 213.926 62.56C213.606 62.7733 213.446 62.9867 213.446 63.2C213.446 63.52 212.832 65.04 211.606 67.76C210.912 69.2533 210.539 70.16 210.486 70.48C210.326 71.0133 210.139 71.28 209.926 71.28C209.712 71.28 209.606 71.52 209.606 72C209.606 72.4267 209.179 73.5733 208.326 75.44C207.472 77.2533 207.019 78.32 206.966 78.64C206.699 79.6533 206.326 80.4 205.846 80.88C205.259 81.5733 204.486 81.92 203.526 81.92C202.672 81.92 202.086 81.76 201.766 81.44C201.552 81.2267 201.446 80.1867 201.446 78.32C201.446 76.72 201.526 74.8267 201.686 72.64C201.686 72.32 201.739 71.3333 201.846 69.68C201.952 67.9733 202.032 66.64 202.086 65.68C202.192 62.5867 202.352 60.88 202.566 60.56C202.779 60.24 202.886 59.6267 202.886 58.72ZM250.821 55.6C250.074 55.0667 249.007 54.8 247.621 54.8C246.554 54.8 245.754 54.9867 245.221 55.36C244.421 55.9467 243.434 57.2 242.261 59.12C241.141 60.9867 240.581 62.32 240.581 63.12C240.581 63.6533 240.394 64.3467 240.021 65.2C239.647 66.0533 239.407 67.44 239.301 69.36C239.247 69.7867 239.221 70.32 239.221 70.96C239.221 71.8667 239.514 72.8267 240.101 73.84C240.634 74.8533 241.247 75.4667 241.941 75.68C242.101 75.7333 242.394 75.76 242.821 75.76C244.847 75.76 246.314 75.36 247.221 74.56C248.661 73.28 249.834 72.32 250.741 71.68C251.007 71.52 251.247 70.64 251.461 69.04C251.727 67.44 251.861 65.9467 251.861 64.56C251.861 63.4933 251.967 62.6667 252.181 62.08C252.447 61.4933 252.581 60.5333 252.581 59.2C252.581 57.6 251.994 56.4 250.821 55.6ZM246.021 51.2C246.341 51.1467 246.794 51.12 247.381 51.12C250.101 51.12 252.367 52 254.181 53.76C254.874 54.4533 255.461 54.72 255.941 54.56C255.994 54.56 256.074 54.56 256.181 54.56C256.287 54.5067 256.367 54.48 256.421 54.48C257.327 54.48 258.074 54.9333 258.661 55.84C259.247 56.7467 259.541 57.76 259.541 58.88C259.541 59.2533 259.514 59.5467 259.461 59.76C258.767 63.76 258.154 66.1067 257.621 66.8C257.247 67.3333 257.061 67.8133 257.061 68.24C257.061 68.6133 256.821 69.2 256.341 70C255.914 70.8 255.674 71.2533 255.621 71.36C255.567 71.4667 255.541 71.68 255.541 72C255.541 72.64 255.647 73.3867 255.861 74.24C256.127 75.0933 256.367 75.5467 256.581 75.6H256.741C257.167 75.6 257.914 75.3333 258.981 74.8C260.047 74.2133 260.687 73.76 260.901 73.44C261.061 73.12 261.354 72.96 261.781 72.96C262.687 72.96 263.274 73.3333 263.541 74.08C263.594 74.1867 263.621 74.3467 263.621 74.56C263.621 75.7333 262.661 76.9333 260.741 78.16C259.674 78.9067 258.501 79.28 257.221 79.28C255.194 79.28 253.727 78.48 252.821 76.88C252.341 76.08 251.861 75.7067 251.381 75.76C251.221 75.76 251.141 75.8667 251.141 76.08C251.141 76.2933 250.767 76.6133 250.021 77.04C248.314 77.8933 247.247 78.5067 246.821 78.88C246.447 79.1467 245.514 79.3867 244.021 79.6C243.914 79.6 243.727 79.6267 243.461 79.68C243.247 79.68 243.087 79.68 242.981 79.68C241.327 79.68 239.647 78.9067 237.941 77.36C237.247 76.72 236.661 75.6533 236.181 74.16C235.701 72.6133 235.461 71.04 235.461 69.44C235.461 69.28 235.461 69.0667 235.461 68.8C235.514 68.5333 235.541 68.3467 235.541 68.24C235.647 67.0667 235.807 66.16 236.021 65.52C236.287 64.88 236.474 64.2133 236.581 63.52C236.741 62.4533 236.981 61.76 237.301 61.44C237.621 61.1733 237.781 60.8 237.781 60.32C237.781 59.9467 238.127 59.04 238.821 57.6C239.567 56.16 240.047 55.44 240.261 55.44C240.367 55.44 240.527 55.2267 240.741 54.8C240.901 54.2667 241.621 53.5733 242.901 52.72C244.234 51.8133 245.274 51.3067 246.021 51.2ZM284.014 57.52C284.014 56.08 283.774 55.12 283.294 54.64C282.814 54.16 282.414 53.92 282.094 53.92C281.614 53.92 281.214 54.2667 280.894 54.96C280.627 55.6 280.494 56.3467 280.494 57.2C280.494 58.2667 280.734 59.04 281.214 59.52C281.694 60 282.2 60.24 282.734 60.24C283.267 60.24 283.614 59.9733 283.774 59.44C283.934 58.9067 284.014 58.2667 284.014 57.52ZM290.494 61.6C290.174 61.6 289.64 61.84 288.894 62.32C288.147 62.8 287.667 63.04 287.454 63.04C286.494 63.04 285.507 64.0267 284.494 66C283.64 67.6533 282.28 69.4133 280.414 71.28C279.934 71.76 279.107 72.3733 277.934 73.12C276.76 73.8667 275.64 74.24 274.574 74.24C273.72 74.24 273.134 73.9733 272.814 73.44C272.654 73.12 272.574 72.8533 272.574 72.64C272.574 71.68 273.214 71.04 274.494 70.72C275.507 70.4 276.334 69.92 276.974 69.28C277.667 68.5867 278.12 68.24 278.334 68.24C278.547 68.24 279.08 67.6 279.934 66.32C280.787 64.9867 281.214 64.1333 281.214 63.76C281.214 63.4933 280.68 63.12 279.614 62.64C278.867 62.2667 278.36 61.8933 278.094 61.52C277.827 61.1467 277.64 60.5333 277.534 59.68C277.534 59.36 277.347 58.6933 276.974 57.68C276.707 56.88 276.734 56.2133 277.054 55.68C277.267 55.2533 277.427 54.5333 277.534 53.52C277.64 52.08 278.414 51.0667 279.854 50.48C280.654 50.2133 281.32 50.08 281.854 50.08C283.72 50.08 285.294 50.96 286.574 52.72C287.427 53.7867 287.854 54.64 287.854 55.28C287.854 55.3333 287.8 55.84 287.694 56.8C287.587 57.76 287.534 58.2933 287.534 58.4C287.534 58.9333 287.747 59.2 288.174 59.2C288.654 59.2 288.894 59.0667 288.894 58.8C288.894 58.6933 289.347 58.4533 290.254 58.08C291.214 57.7067 291.694 57.4933 291.694 57.44C291.694 57.28 292.067 57.0667 292.814 56.8C293.4 56.5333 294.147 55.9467 295.054 55.04C296.014 54.08 296.574 53.36 296.734 52.88C296.84 52.56 297.4 52.1067 298.414 51.52L299.854 50.8L300.654 51.52C301.187 52.0533 301.454 52.64 301.454 53.28C301.454 53.76 301.294 54.1067 300.974 54.32C300.6 54.6933 300.414 55.0933 300.414 55.52C300.414 56.0533 300.254 56.3733 299.934 56.48C299.667 56.5867 299.427 57.12 299.214 58.08C299 59.04 298.814 59.52 298.654 59.52C298.387 59.52 298.2 59.7333 298.094 60.16C298.04 60.2133 297.88 60.4533 297.614 60.88C297.347 61.2533 297.08 61.6533 296.814 62.08C296.6 62.4533 296.387 62.8533 296.174 63.28C295.96 63.6533 295.854 63.8933 295.854 64C295.854 64.16 295.56 64.9067 294.974 66.24C294.387 67.52 294.094 68.2933 294.094 68.56C294.094 69.2 293.88 69.8933 293.454 70.64C292.974 71.4933 292.734 72.4533 292.734 73.52C292.734 74.0533 292.814 74.6133 292.974 75.2C293.08 75.5733 293.187 75.7867 293.294 75.84C293.454 75.8933 293.72 75.8667 294.094 75.76C294.574 75.6533 294.92 75.4667 295.134 75.2C295.4 74.88 295.96 73.9733 296.814 72.48C297.56 71.0933 298.307 70.4 299.054 70.4C299.374 70.4 299.667 70.5067 299.934 70.72C300.254 70.9867 300.414 71.6 300.414 72.56C300.414 73.5733 300.227 74.24 299.854 74.56C299.534 74.88 299.374 75.1733 299.374 75.44C299.374 76.1333 298.68 76.9867 297.294 78C295.96 78.96 294.814 79.44 293.854 79.44C293.32 79.44 292.627 79.2267 291.774 78.8C290.92 78.3733 290.307 77.9467 289.934 77.52C289.56 77.0933 289.374 75.84 289.374 73.76C289.374 71.36 289.587 69.8667 290.014 69.28C290.44 68.64 290.654 68.16 290.654 67.84C290.654 67.4133 290.76 67.2 290.974 67.2C291.08 67.2 291.24 66.7733 291.454 65.92C291.507 65.2267 291.88 64.2133 292.574 62.88C293.16 61.7067 293.454 60.9867 293.454 60.72C293.454 60.6133 293.374 60.56 293.214 60.56C293.054 60.56 292.76 60.6933 292.334 60.96C291.64 61.3867 291.027 61.6 290.494 61.6ZM325.508 55.6C324.761 55.0667 323.695 54.8 322.308 54.8C321.241 54.8 320.441 54.9867 319.908 55.36C319.108 55.9467 318.121 57.2 316.948 59.12C315.828 60.9867 315.268 62.32 315.268 63.12C315.268 63.6533 315.081 64.3467 314.708 65.2C314.335 66.0533 314.095 67.44 313.988 69.36C313.935 69.7867 313.908 70.32 313.908 70.96C313.908 71.8667 314.201 72.8267 314.788 73.84C315.321 74.8533 315.935 75.4667 316.628 75.68C316.788 75.7333 317.081 75.76 317.508 75.76C319.535 75.76 321.001 75.36 321.908 74.56C323.348 73.28 324.521 72.32 325.428 71.68C325.695 71.52 325.935 70.64 326.148 69.04C326.415 67.44 326.548 65.9467 326.548 64.56C326.548 63.4933 326.655 62.6667 326.868 62.08C327.135 61.4933 327.268 60.5333 327.268 59.2C327.268 57.6 326.681 56.4 325.508 55.6ZM320.708 51.2C321.028 51.1467 321.481 51.12 322.068 51.12C324.788 51.12 327.055 52 328.868 53.76C329.561 54.4533 330.148 54.72 330.628 54.56C330.681 54.56 330.761 54.56 330.868 54.56C330.975 54.5067 331.055 54.48 331.108 54.48C332.015 54.48 332.761 54.9333 333.348 55.84C333.935 56.7467 334.228 57.76 334.228 58.88C334.228 59.2533 334.201 59.5467 334.148 59.76C333.455 63.76 332.841 66.1067 332.308 66.8C331.935 67.3333 331.748 67.8133 331.748 68.24C331.748 68.6133 331.508 69.2 331.028 70C330.601 70.8 330.361 71.2533 330.308 71.36C330.255 71.4667 330.228 71.68 330.228 72C330.228 72.64 330.335 73.3867 330.548 74.24C330.815 75.0933 331.055 75.5467 331.268 75.6H331.428C331.855 75.6 332.601 75.3333 333.668 74.8C334.735 74.2133 335.375 73.76 335.588 73.44C335.748 73.12 336.041 72.96 336.468 72.96C337.375 72.96 337.961 73.3333 338.228 74.08C338.281 74.1867 338.308 74.3467 338.308 74.56C338.308 75.7333 337.348 76.9333 335.428 78.16C334.361 78.9067 333.188 79.28 331.908 79.28C329.881 79.28 328.415 78.48 327.508 76.88C327.028 76.08 326.548 75.7067 326.068 75.76C325.908 75.76 325.828 75.8667 325.828 76.08C325.828 76.2933 325.455 76.6133 324.708 77.04C323.001 77.8933 321.935 78.5067 321.508 78.88C321.135 79.1467 320.201 79.3867 318.708 79.6C318.601 79.6 318.415 79.6267 318.148 79.68C317.935 79.68 317.775 79.68 317.668 79.68C316.015 79.68 314.335 78.9067 312.628 77.36C311.935 76.72 311.348 75.6533 310.868 74.16C310.388 72.6133 310.148 71.04 310.148 69.44C310.148 69.28 310.148 69.0667 310.148 68.8C310.201 68.5333 310.228 68.3467 310.228 68.24C310.335 67.0667 310.495 66.16 310.708 65.52C310.975 64.88 311.161 64.2133 311.268 63.52C311.428 62.4533 311.668 61.76 311.988 61.44C312.308 61.1733 312.468 60.8 312.468 60.32C312.468 59.9467 312.815 59.04 313.508 57.6C314.255 56.16 314.735 55.44 314.948 55.44C315.055 55.44 315.215 55.2267 315.428 54.8C315.588 54.2667 316.308 53.5733 317.588 52.72C318.921 51.8133 319.961 51.3067 320.708 51.2ZM356.061 56C356.168 56 356.301 55.6 356.461 54.8C356.621 54 356.781 53.6 356.941 53.6C357.155 53.6 357.315 53.3333 357.421 52.8C359.235 48.2667 360.168 45.8667 360.221 45.6C360.435 44.8533 360.621 44.48 360.781 44.48C360.941 44.48 361.075 44.2133 361.181 43.68C361.235 43.4667 361.555 42.5867 362.141 41.04C362.568 39.76 362.861 38.32 363.021 36.72L363.261 34.4H362.141C360.541 34.4 359.741 34.8533 359.741 35.76C359.741 36.1867 359.555 36.4533 359.181 36.56C358.915 36.6667 358.675 37.0933 358.461 37.84C358.248 38.5867 358.088 38.96 357.981 38.96C357.821 38.96 357.581 39.28 357.261 39.92C356.941 40.56 356.755 41.0933 356.701 41.52C356.061 47.1733 355.741 51.2533 355.741 53.76C355.741 55.2 355.848 55.9467 356.061 56ZM360.061 31.2C361.021 30.7733 362.221 30.56 363.661 30.56C364.355 30.56 364.861 30.6133 365.181 30.72C365.661 30.88 366.035 31.3067 366.301 32C366.568 32.8 366.701 34.2133 366.701 36.24C366.701 37.9467 366.595 38.9067 366.381 39.12C366.168 39.3333 366.008 39.7867 365.901 40.48C365.795 41.1733 365.501 42.0533 365.021 43.12C364.595 44.0267 364.221 45.1467 363.901 46.48C363.741 47.1733 363.475 47.8667 363.101 48.56C362.728 49.2533 362.461 49.9733 362.301 50.72C362.195 51.68 361.955 52.2133 361.581 52.32C361.261 52.4267 361.101 52.72 361.101 53.2C361.101 53.68 360.995 53.9733 360.781 54.08C360.621 54.24 360.381 54.88 360.061 56C359.795 57.12 359.608 57.7867 359.501 58C359.235 58.3733 358.888 59.4133 358.461 61.12C358.088 62.7733 357.848 63.76 357.741 64.08C357.475 64.6133 357.341 65.0133 357.341 65.28C357.341 65.4933 357.475 66 357.741 66.8C357.795 66.96 357.875 67.28 357.981 67.76C358.088 68.1867 358.168 68.5333 358.221 68.8C358.328 69.0133 358.435 69.3333 358.541 69.76C358.648 70.1333 358.781 70.4533 358.941 70.72C359.101 70.9333 359.261 71.1733 359.421 71.44C359.635 71.6533 359.848 71.8133 360.061 71.92C360.328 72.0267 360.595 72.08 360.861 72.08C361.395 72.08 361.955 71.8133 362.541 71.28C363.181 70.7467 363.608 70.1333 363.821 69.44C364.035 68.6933 364.595 68.32 365.501 68.32C365.928 68.32 366.275 68.3467 366.541 68.4C367.128 68.56 367.421 68.96 367.421 69.6C367.421 70.2933 367.235 70.72 366.861 70.88C366.541 70.9867 366.381 71.2267 366.381 71.6C366.381 72.1333 365.955 72.8267 365.101 73.68C364.301 74.5333 363.501 75.0667 362.701 75.28C362.115 75.44 361.555 75.52 361.021 75.52C359.208 75.52 357.528 74.64 355.981 72.88C355.448 72.2933 355.101 71.9733 354.941 71.92C354.781 71.8133 354.621 71.92 354.461 72.24C352.861 74.2667 352.035 75.36 351.981 75.52C351.821 76.0533 351.555 76.32 351.181 76.32C350.861 76.32 350.568 76.56 350.301 77.04C350.035 77.4667 349.475 77.6533 348.621 77.6C347.608 77.5467 347.101 77.1733 347.101 76.48C347.101 75.7867 347.555 74.9333 348.461 73.92C349.155 73.12 349.688 72.3733 350.061 71.68C350.168 71.2533 350.355 71.04 350.621 71.04C350.835 71.04 350.941 70.88 350.941 70.56C350.941 70.24 351.235 69.7333 351.821 69.04C352.408 68.3467 352.701 67.7067 352.701 67.12C352.701 66.48 352.835 66.1067 353.101 66C353.315 65.84 353.421 65.28 353.421 64.32C353.421 63.2533 353.288 62.6933 353.021 62.64C352.488 62.3733 352.221 59.5467 352.221 54.16V52.4C352.328 46.3733 352.621 42.9333 353.101 42.08C353.155 41.9733 353.315 41.3067 353.581 40.08C353.688 39.3333 353.981 38.4267 354.461 37.36C354.941 36.24 355.315 35.6267 355.581 35.52C355.795 35.4133 355.901 35.2267 355.901 34.96C355.901 34.64 356.408 34.0267 357.421 33.12C358.435 32.2133 359.315 31.5733 360.061 31.2ZM391.524 55.6C390.777 55.0667 389.71 54.8 388.324 54.8C387.257 54.8 386.457 54.9867 385.924 55.36C385.124 55.9467 384.137 57.2 382.964 59.12C381.844 60.9867 381.284 62.32 381.284 63.12C381.284 63.6533 381.097 64.3467 380.724 65.2C380.35 66.0533 380.11 67.44 380.004 69.36C379.95 69.7867 379.924 70.32 379.924 70.96C379.924 71.8667 380.217 72.8267 380.804 73.84C381.337 74.8533 381.95 75.4667 382.644 75.68C382.804 75.7333 383.097 75.76 383.524 75.76C385.55 75.76 387.017 75.36 387.924 74.56C389.364 73.28 390.537 72.32 391.444 71.68C391.71 71.52 391.95 70.64 392.164 69.04C392.43 67.44 392.564 65.9467 392.564 64.56C392.564 63.4933 392.67 62.6667 392.884 62.08C393.15 61.4933 393.284 60.5333 393.284 59.2C393.284 57.6 392.697 56.4 391.524 55.6ZM386.724 51.2C387.044 51.1467 387.497 51.12 388.084 51.12C390.804 51.12 393.07 52 394.884 53.76C395.577 54.4533 396.164 54.72 396.644 54.56C396.697 54.56 396.777 54.56 396.884 54.56C396.99 54.5067 397.07 54.48 397.124 54.48C398.03 54.48 398.777 54.9333 399.364 55.84C399.95 56.7467 400.244 57.76 400.244 58.88C400.244 59.2533 400.217 59.5467 400.164 59.76C399.47 63.76 398.857 66.1067 398.324 66.8C397.95 67.3333 397.764 67.8133 397.764 68.24C397.764 68.6133 397.524 69.2 397.044 70C396.617 70.8 396.377 71.2533 396.324 71.36C396.27 71.4667 396.244 71.68 396.244 72C396.244 72.64 396.35 73.3867 396.564 74.24C396.83 75.0933 397.07 75.5467 397.284 75.6H397.444C397.87 75.6 398.617 75.3333 399.684 74.8C400.75 74.2133 401.39 73.76 401.604 73.44C401.764 73.12 402.057 72.96 402.484 72.96C403.39 72.96 403.977 73.3333 404.244 74.08C404.297 74.1867 404.324 74.3467 404.324 74.56C404.324 75.7333 403.364 76.9333 401.444 78.16C400.377 78.9067 399.204 79.28 397.924 79.28C395.897 79.28 394.43 78.48 393.524 76.88C393.044 76.08 392.564 75.7067 392.084 75.76C391.924 75.76 391.844 75.8667 391.844 76.08C391.844 76.2933 391.47 76.6133 390.724 77.04C389.017 77.8933 387.95 78.5067 387.524 78.88C387.15 79.1467 386.217 79.3867 384.724 79.6C384.617 79.6 384.43 79.6267 384.164 79.68C383.95 79.68 383.79 79.68 383.684 79.68C382.03 79.68 380.35 78.9067 378.644 77.36C377.95 76.72 377.364 75.6533 376.884 74.16C376.404 72.6133 376.164 71.04 376.164 69.44C376.164 69.28 376.164 69.0667 376.164 68.8C376.217 68.5333 376.244 68.3467 376.244 68.24C376.35 67.0667 376.51 66.16 376.724 65.52C376.99 64.88 377.177 64.2133 377.284 63.52C377.444 62.4533 377.684 61.76 378.004 61.44C378.324 61.1733 378.484 60.8 378.484 60.32C378.484 59.9467 378.83 59.04 379.524 57.6C380.27 56.16 380.75 55.44 380.964 55.44C381.07 55.44 381.23 55.2267 381.444 54.8C381.604 54.2667 382.324 53.5733 383.604 52.72C384.937 51.8133 385.977 51.3067 386.724 51.2ZM435.677 61.76C435.677 61.4933 435.757 61.3067 435.917 61.2C436.077 61.0933 436.37 60.4533 436.797 59.28C437.224 58.0533 437.437 57.1733 437.437 56.64C437.437 56.4267 437.384 56.32 437.277 56.32C437.064 56.32 436.69 56.6933 436.157 57.44C435.517 58.3467 435.064 58.8 434.797 58.8C434.424 58.8 434.237 59.04 434.237 59.52C434.237 60.0533 434.024 60.6667 433.597 61.36C433.17 62 432.957 62.5067 432.957 62.88C432.957 63.2 433.17 63.36 433.597 63.36C433.97 63.36 434.397 63.1733 434.877 62.8C435.41 62.3733 435.677 62.0267 435.677 61.76ZM429.677 45.92C429.837 45.92 430.104 45.52 430.477 44.72C430.85 43.8667 431.09 43.44 431.197 43.44C431.357 43.44 431.437 43.1733 431.437 42.64C431.437 42.32 431.624 41.84 431.997 41.2C432.05 41.1467 432.184 40.7733 432.397 40.08C432.61 39.3867 432.824 38.7467 433.037 38.16C433.304 37.52 433.49 37.2 433.597 37.2C433.81 37.2 433.917 36.3733 433.917 34.72C433.917 32.7467 433.81 31.5733 433.597 31.2C433.33 30.7733 433.064 30.56 432.797 30.56C432.477 30.56 432.05 30.9067 431.517 31.6C430.61 32.8267 429.757 35.36 428.957 39.2C428.317 42.1333 427.997 44.8533 427.997 47.36C427.997 48.2667 428.077 48.72 428.237 48.72C428.397 48.72 428.61 48.4267 428.877 47.84C429.197 47.2533 429.357 46.7733 429.357 46.4C429.357 46.08 429.464 45.92 429.677 45.92ZM438.477 69.04C438.477 69.2533 438.637 69.5733 438.957 70C439.33 70.3733 439.517 70.64 439.517 70.8C439.517 71.2267 439.784 71.9733 440.317 73.04C440.904 74.0533 441.357 74.6667 441.677 74.88C442.157 75.1467 442.61 75.0933 443.037 74.72C443.517 74.2933 444.05 74.1333 444.637 74.24C445.384 74.2933 445.757 74.8267 445.757 75.84C445.757 76.6933 445.41 77.4133 444.717 78C444.077 78.5333 443.277 78.8 442.317 78.8C441.677 78.8 440.93 78.6133 440.077 78.24C439.49 77.9733 438.77 77.3067 437.917 76.24C437.117 75.1733 436.717 74.4 436.717 73.92C436.717 73.6 436.29 72.5867 435.437 70.88L434.237 68.24H432.557C431.49 68.24 430.797 68.48 430.477 68.96C430.157 69.3867 429.997 70.3467 429.997 71.84C429.997 72.8533 429.837 74.0267 429.517 75.36C429.25 76.64 428.984 77.3067 428.717 77.36H428.477C428.37 77.4133 428.237 77.4667 428.077 77.52C427.917 77.5733 427.757 77.6 427.597 77.6H427.197C426.557 77.6 426.104 77.2533 425.837 76.56C425.624 75.8667 425.464 74.4533 425.357 72.32C425.09 67.5733 424.85 64.5067 424.637 63.12C424.477 61.68 424.157 60.96 423.677 60.96C423.304 60.96 422.69 61.1733 421.837 61.6C420.877 62.1333 419.464 62.4 417.597 62.4C416.744 62.4 416.21 62.2933 415.997 62.08C415.837 61.92 415.437 61.84 414.797 61.84C414.157 61.84 413.73 61.44 413.517 60.64C413.41 60.2133 413.357 59.92 413.357 59.76C413.357 59.3333 413.624 59.0667 414.157 58.96C414.69 58.8 415.757 58.72 417.357 58.72C418.957 58.72 419.97 58.6667 420.397 58.56C420.877 58.4533 421.41 58.1333 421.997 57.6C422.744 56.8533 423.117 56.4267 423.117 56.32C423.117 56.1067 423.277 55.84 423.597 55.52C423.97 55.1467 424.157 54.3467 424.157 53.12C424.157 52.4267 424.21 51.76 424.317 51.12C424.477 50.48 424.557 49.9467 424.557 49.52C424.557 48.9333 424.53 48.4533 424.477 48.08C424.264 46.8 424.264 46.0267 424.477 45.76C424.637 45.6 424.77 44.2933 424.877 41.84C424.93 39.6 425.17 38.1333 425.597 37.44C425.81 37.12 426.05 36.2667 426.317 34.88C426.637 33.44 426.957 32.5333 427.277 32.16C427.757 31.4667 427.997 31.0933 427.997 31.04C427.997 30.6667 428.264 30.0267 428.797 29.12C429.33 28.2133 429.704 27.76 429.917 27.76C430.237 27.76 430.45 27.5733 430.557 27.2C430.717 26.7733 431.41 26.64 432.637 26.8C434.344 26.9067 435.517 27.44 436.157 28.4C436.797 29.36 437.117 31.0667 437.117 33.52V34.56C437.117 36.8533 436.877 38.4533 436.397 39.36C435.917 40.2133 435.677 40.7733 435.677 41.04C435.677 41.36 435.037 42.88 433.757 45.6C433.17 46.9867 432.877 47.7333 432.877 47.84C432.877 47.9467 432.397 48.8 431.437 50.4C430.53 51.9467 429.944 52.88 429.677 53.2C428.504 54.5867 427.917 56.6133 427.917 59.28C427.917 61.7867 428.13 63.04 428.557 63.04C428.61 63.04 428.717 62.8533 428.877 62.48C429.037 61.8933 429.81 60.5867 431.197 58.56C432.317 56.8533 432.877 55.92 432.877 55.76C432.877 55.6 433.09 55.3333 433.517 54.96C433.997 54.5867 434.237 54.2933 434.237 54.08C434.237 53.8133 434.584 53.4933 435.277 53.12C436.024 52.6933 436.424 52.4267 436.477 52.32C436.584 52.0533 436.984 51.92 437.677 51.92C438.37 51.92 438.957 52.0533 439.437 52.32C439.81 52.5333 440.237 53.0933 440.717 54C441.197 54.9067 441.437 55.6267 441.437 56.16C441.437 56.32 441.384 56.4533 441.277 56.56C441.01 56.8267 440.877 57.3067 440.877 58C440.877 58.5867 440.744 59.3867 440.477 60.4C440.264 61.36 440.077 61.8933 439.917 62C439.757 62.1067 439.33 62.6933 438.637 63.76C437.944 64.7733 437.57 65.3067 437.517 65.36C437.41 65.4667 437.357 65.6 437.357 65.76C437.357 66.1333 437.544 66.7467 437.917 67.6C438.29 68.4533 438.477 68.9333 438.477 69.04ZM474.677 32.96C474.73 32.8 476.144 32.64 478.917 32.48C481.69 32.32 483.984 32.24 485.797 32.24H486.837C487.05 32.2933 488.757 32.4267 491.957 32.64C495.157 32.8 496.917 32.9333 497.237 33.04C497.93 33.3067 498.917 33.44 500.197 33.44L502.437 33.52L502.597 34.88V35.28C502.597 35.8133 502.437 36.1867 502.117 36.4C501.797 36.56 501.157 36.64 500.197 36.64C499.877 36.64 498.757 36.5867 496.837 36.48C494.277 36.2133 492.17 36.08 490.517 36.08L488.437 36L487.877 38.08C487.397 39.5733 487.13 43.9467 487.077 51.2C487.077 58.56 487.13 62.2667 487.237 62.32C487.45 62.4267 487.557 64.8533 487.557 69.6L487.477 76.72L486.597 77.12C486.117 77.3867 485.61 77.52 485.077 77.52C484.65 77.52 484.33 77.3867 484.117 77.12C483.904 76.8 483.744 70.32 483.637 57.68V48.64C483.637 42.0267 483.744 38.5333 483.957 38.16C484.33 37.7867 484.464 37.3333 484.357 36.8C484.304 36.4267 484.09 36.2133 483.717 36.16C483.397 36.0533 482.277 36 480.357 36C477.904 36 476.197 36.16 475.237 36.48C474.277 36.8533 473.584 37.0667 473.157 37.12C472.57 37.2267 472.144 37.4133 471.877 37.68C471.664 37.8933 471.184 38 470.437 38C469.37 38 468.757 37.84 468.597 37.52C468.33 37.0933 468.197 36.72 468.197 36.4C468.197 35.4933 468.81 34.7733 470.037 34.24C471.317 33.6533 472.517 33.36 473.637 33.36C474.224 33.36 474.57 33.2267 474.677 32.96ZM518.998 51.28C518.998 50.5333 519.718 50.16 521.158 50.16C521.691 50.16 522.118 50.24 522.438 50.4C522.758 50.6667 522.918 52.0533 522.918 54.56C522.918 56.4267 522.838 59.0133 522.678 62.32C522.625 63.4933 522.598 64.9067 522.598 66.56C522.598 68.2133 522.651 69.3067 522.758 69.84C523.238 72.24 523.958 73.7867 524.918 74.48C525.131 74.5867 525.371 74.64 525.638 74.64C526.118 74.64 526.571 74.5333 526.998 74.32C527.478 74.1067 527.718 73.8933 527.718 73.68C527.718 73.36 527.878 73.04 528.198 72.72C528.571 72.3467 529.105 71.52 529.798 70.24C530.491 68.9067 530.838 68.08 530.838 67.76C530.838 67.3867 530.945 67.2 531.158 67.2C531.531 67.2 532.118 66.1333 532.918 64C533.185 63.36 533.425 63.04 533.638 63.04C533.851 63.04 533.958 62.72 533.958 62.08C533.958 61.3867 534.198 60.8533 534.678 60.48C535.158 60.1067 535.398 59.68 535.398 59.2C535.398 58.8267 535.611 58.48 536.038 58.16C536.358 57.9467 536.678 57.28 536.998 56.16C537.371 55.04 537.611 54.3733 537.718 54.16C538.038 53.6267 538.198 53.1733 538.198 52.8C538.198 52.16 538.411 51.6267 538.838 51.2C539.318 50.72 539.878 50.48 540.518 50.48C541.638 50.48 542.198 50.9867 542.198 52C542.198 52.48 542.065 53.2533 541.798 54.32C541.265 56.9333 540.918 59.0667 540.758 60.72C540.491 63.3333 540.225 65.0933 539.958 66C539.691 66.9067 539.558 68.1867 539.558 69.84V72.56C539.558 74.5867 539.745 75.6 540.118 75.6C540.438 75.6 540.598 75.52 540.598 75.36C540.598 75.2 541.078 74.5867 542.038 73.52C542.785 72.6133 543.318 72.16 543.638 72.16C543.691 72.16 543.825 72.2133 544.038 72.32C544.625 72.64 544.918 73.3067 544.918 74.32C544.918 74.8533 544.785 75.3867 544.518 75.92C544.198 76.6667 543.931 77.04 543.718 77.04C543.505 77.04 543.291 77.3067 543.078 77.84C542.918 78.32 542.438 78.7733 541.638 79.2C540.891 79.5733 540.171 79.76 539.478 79.76C538.571 79.76 537.611 78.9333 536.598 77.28C536.011 76.3733 535.718 75.0133 535.718 73.2V69.84C535.718 68.08 535.558 67.2 535.238 67.2C534.865 67.2 534.678 67.52 534.678 68.16C534.678 68.6933 534.518 69.2 534.198 69.68C533.931 70.16 533.638 70.4 533.318 70.4C533.051 70.4 532.918 70.56 532.918 70.88C532.918 71.4133 532.571 72.2667 531.878 73.44C531.185 74.6133 530.411 75.6533 529.558 76.56C528.758 77.4133 528.198 77.9467 527.878 78.16C527.558 78.32 526.998 78.4 526.198 78.4C524.651 78.4 523.398 78.0267 522.438 77.28C521.478 76.48 520.571 75.12 519.718 73.2C519.345 72.2933 519.078 71.2533 518.918 70.08C518.811 68.9067 518.705 66.3733 518.598 62.48C518.598 62.2133 518.571 62.08 518.518 62.08L517.878 62.72C517.771 62.88 517.531 63.2 517.158 63.68C516.785 64.1067 516.518 64.4267 516.358 64.64C516.198 64.8 515.985 65.04 515.718 65.36C515.505 65.68 515.318 65.92 515.158 66.08C515.051 66.1867 514.865 66.32 514.598 66.48C514.385 66.64 514.118 66.7467 513.798 66.8C513.531 66.8533 513.185 66.88 512.758 66.88H512.118C511.798 66.88 511.638 66.4 511.638 65.44C511.638 64.7467 511.745 64.4 511.958 64.4C512.171 64.4 512.358 64.1867 512.518 63.76C512.625 63.28 513.158 62.56 514.118 61.6C515.025 60.6933 515.478 60.0267 515.478 59.6C515.478 59.3333 515.691 58.88 516.118 58.24C516.385 57.92 516.651 57.4133 516.918 56.72C517.238 56.0267 517.531 55.2533 517.798 54.4C518.118 53.5467 518.331 52.9867 518.438 52.72C518.811 51.8667 518.998 51.3867 518.998 51.28ZM562.624 56C562.73 56 562.864 55.6 563.024 54.8C563.184 54 563.344 53.6 563.504 53.6C563.717 53.6 563.877 53.3333 563.984 52.8C565.797 48.2667 566.73 45.8667 566.784 45.6C566.997 44.8533 567.184 44.48 567.344 44.48C567.504 44.48 567.637 44.2133 567.744 43.68C567.797 43.4667 568.117 42.5867 568.704 41.04C569.13 39.76 569.424 38.32 569.584 36.72L569.824 34.4H568.704C567.104 34.4 566.304 34.8533 566.304 35.76C566.304 36.1867 566.117 36.4533 565.744 36.56C565.477 36.6667 565.237 37.0933 565.024 37.84C564.81 38.5867 564.65 38.96 564.544 38.96C564.384 38.96 564.144 39.28 563.824 39.92C563.504 40.56 563.317 41.0933 563.264 41.52C562.624 47.1733 562.304 51.2533 562.304 53.76C562.304 55.2 562.41 55.9467 562.624 56ZM566.624 31.2C567.584 30.7733 568.784 30.56 570.224 30.56C570.917 30.56 571.424 30.6133 571.744 30.72C572.224 30.88 572.597 31.3067 572.864 32C573.13 32.8 573.264 34.2133 573.264 36.24C573.264 37.9467 573.157 38.9067 572.944 39.12C572.73 39.3333 572.57 39.7867 572.464 40.48C572.357 41.1733 572.064 42.0533 571.584 43.12C571.157 44.0267 570.784 45.1467 570.464 46.48C570.304 47.1733 570.037 47.8667 569.664 48.56C569.29 49.2533 569.024 49.9733 568.864 50.72C568.757 51.68 568.517 52.2133 568.144 52.32C567.824 52.4267 567.664 52.72 567.664 53.2C567.664 53.68 567.557 53.9733 567.344 54.08C567.184 54.24 566.944 54.88 566.624 56C566.357 57.12 566.17 57.7867 566.064 58C565.797 58.3733 565.45 59.4133 565.024 61.12C564.65 62.7733 564.41 63.76 564.304 64.08C564.037 64.6133 563.904 65.0133 563.904 65.28C563.904 65.4933 564.037 66 564.304 66.8C564.357 66.96 564.437 67.28 564.544 67.76C564.65 68.1867 564.73 68.5333 564.784 68.8C564.89 69.0133 564.997 69.3333 565.104 69.76C565.21 70.1333 565.344 70.4533 565.504 70.72C565.664 70.9333 565.824 71.1733 565.984 71.44C566.197 71.6533 566.41 71.8133 566.624 71.92C566.89 72.0267 567.157 72.08 567.424 72.08C567.957 72.08 568.517 71.8133 569.104 71.28C569.744 70.7467 570.17 70.1333 570.384 69.44C570.597 68.6933 571.157 68.32 572.064 68.32C572.49 68.32 572.837 68.3467 573.104 68.4C573.69 68.56 573.984 68.96 573.984 69.6C573.984 70.2933 573.797 70.72 573.424 70.88C573.104 70.9867 572.944 71.2267 572.944 71.6C572.944 72.1333 572.517 72.8267 571.664 73.68C570.864 74.5333 570.064 75.0667 569.264 75.28C568.677 75.44 568.117 75.52 567.584 75.52C565.77 75.52 564.09 74.64 562.544 72.88C562.01 72.2933 561.664 71.9733 561.504 71.92C561.344 71.8133 561.184 71.92 561.024 72.24C559.424 74.2667 558.597 75.36 558.544 75.52C558.384 76.0533 558.117 76.32 557.744 76.32C557.424 76.32 557.13 76.56 556.864 77.04C556.597 77.4667 556.037 77.6533 555.184 77.6C554.17 77.5467 553.664 77.1733 553.664 76.48C553.664 75.7867 554.117 74.9333 555.024 73.92C555.717 73.12 556.25 72.3733 556.624 71.68C556.73 71.2533 556.917 71.04 557.184 71.04C557.397 71.04 557.504 70.88 557.504 70.56C557.504 70.24 557.797 69.7333 558.384 69.04C558.97 68.3467 559.264 67.7067 559.264 67.12C559.264 66.48 559.397 66.1067 559.664 66C559.877 65.84 559.984 65.28 559.984 64.32C559.984 63.2533 559.85 62.6933 559.584 62.64C559.05 62.3733 558.784 59.5467 558.784 54.16V52.4C558.89 46.3733 559.184 42.9333 559.664 42.08C559.717 41.9733 559.877 41.3067 560.144 40.08C560.25 39.3333 560.544 38.4267 561.024 37.36C561.504 36.24 561.877 35.6267 562.144 35.52C562.357 35.4133 562.464 35.2267 562.464 34.96C562.464 34.64 562.97 34.0267 563.984 33.12C564.997 32.2133 565.877 31.5733 566.624 31.2ZM601.846 84.72C601.846 83.3867 601.686 82.72 601.366 82.72H601.206C600.673 82.72 599.846 82.88 598.726 83.2C597.606 83.4667 596.94 83.7067 596.726 83.92C596.46 84.1867 596.166 84.32 595.846 84.32C595.153 84.32 594.806 85.0667 594.806 86.56C594.806 87.3067 594.94 87.8133 595.206 88.08C595.26 88.1333 595.393 88.32 595.606 88.64C595.873 88.96 596.113 89.1733 596.326 89.28C596.593 89.3333 596.993 89.36 597.526 89.36C598.326 89.36 599.1 89.1467 599.846 88.72C600.593 88.24 600.966 87.76 600.966 87.28C600.966 87.0133 601.126 86.8267 601.446 86.72C601.713 86.6133 601.846 85.9467 601.846 84.72ZM585.286 56.96C585.286 56.8 585.5 56.4533 585.926 55.92C586.406 55.3867 586.646 55.0133 586.646 54.8C586.646 54.48 586.753 54.32 586.966 54.32C587.233 54.32 587.713 53.68 588.406 52.4C588.886 51.5467 589.26 51.0133 589.526 50.8C589.793 50.5867 590.14 50.48 590.566 50.48C591.26 50.48 591.766 50.64 592.086 50.96C592.406 51.2267 592.673 51.84 592.886 52.8C593.153 53.76 593.366 54.96 593.526 56.4C593.74 57.84 593.9 58.8267 594.006 59.36C594.273 60.64 594.513 62.1067 594.726 63.76C595.313 68.4 595.926 71.04 596.566 71.68C596.886 72 597.446 72.0267 598.246 71.76C598.833 71.5467 599.606 70.96 600.566 70C601.526 69.04 602.006 68.3733 602.006 68C602.006 67.7333 602.14 67.6 602.406 67.6C602.62 67.6 602.726 67.4667 602.726 67.2C602.726 66.9333 602.966 66.32 603.446 65.36C604.353 63.7067 605.073 60.96 605.606 57.12C605.873 55.68 606.166 54.5867 606.486 53.84C606.806 53.2 606.966 52.7467 606.966 52.48C606.966 52.1067 607.313 51.68 608.006 51.2C608.7 50.72 609.26 50.48 609.686 50.48C610.113 50.48 610.593 50.88 611.126 51.68C611.5 52.2667 611.686 52.72 611.686 53.04C611.686 53.36 611.526 53.7867 611.206 54.32C610.566 55.3867 610.086 56.72 609.766 58.32C609.5 59.6 609.26 60.4 609.046 60.72C608.62 61.3067 608.3 63.52 608.086 67.36C607.873 70.1333 607.686 71.6533 607.526 71.92C607.313 72.5067 607.153 74.1067 607.046 76.72L606.806 80.72L607.926 81.44C608.673 81.9733 609.1 82.24 609.206 82.24C609.42 82.24 610.086 82.8267 611.206 84C612.326 85.1733 612.886 85.8933 612.886 86.16C612.886 86.5333 612.7 86.88 612.326 87.2C611.953 87.4667 611.5 87.6 610.966 87.6C610.433 87.6 609.5 87.12 608.166 86.16C606.886 85.2 606.113 84.72 605.846 84.72C605.633 84.72 605.526 84.96 605.526 85.44C605.526 85.92 605.233 86.8 604.646 88.08C604.113 89.3067 603.74 89.92 603.526 89.92C603.313 89.92 603.046 90.2133 602.726 90.8C602.566 91.12 602.3 91.3867 601.926 91.6C601.606 91.8133 601.206 92 600.726 92.16C600.246 92.32 599.9 92.48 599.686 92.64C599.42 92.8533 598.993 92.96 598.406 92.96C597.446 92.96 596.14 92.6933 594.486 92.16C592.513 91.52 591.526 90.1867 591.526 88.16C591.526 87.4133 591.42 86.8267 591.206 86.4C590.993 86.0267 591.046 85.76 591.366 85.6C591.793 85.44 591.926 85.0933 591.766 84.56L591.686 84.4V84.24C591.686 83.8133 592.113 83.1733 592.966 82.32C594.78 80.4 597.233 79.4133 600.326 79.36C602.14 79.2533 603.1 79.1467 603.206 79.04C603.473 78.7733 603.606 76.9067 603.606 73.44C603.606 72.8 603.58 72.48 603.526 72.48C603.42 72.48 602.966 72.8267 602.166 73.52C601.366 74.2133 600.806 74.56 600.486 74.56C600.273 74.56 599.98 74.7467 599.606 75.12C599.34 75.44 598.54 75.6 597.206 75.6C596.3 75.6 595.686 75.5467 595.366 75.44C595.046 75.28 594.566 74.8533 593.926 74.16C593.073 73.2533 592.646 72.4267 592.646 71.68C592.646 71.04 592.54 70.72 592.326 70.72C592.006 70.72 591.446 67.6267 590.646 61.44C590.273 58.6667 590.033 57.2267 589.926 57.12H589.846C589.686 57.12 589.34 57.4667 588.806 58.16C588.273 58.8533 587.846 59.4933 587.526 60.08C586.673 61.68 585.66 62.5867 584.486 62.8C583.633 63.0133 583.126 62.9067 582.966 62.48C582.913 62.3733 582.886 62.2133 582.886 62C582.886 60.6667 583.393 59.44 584.406 58.32C584.993 57.6267 585.286 57.1733 585.286 56.96ZM637.149 55.6C636.402 55.0667 635.335 54.8 633.949 54.8C632.882 54.8 632.082 54.9867 631.549 55.36C630.749 55.9467 629.762 57.2 628.589 59.12C627.469 60.9867 626.909 62.32 626.909 63.12C626.909 63.6533 626.722 64.3467 626.349 65.2C625.975 66.0533 625.735 67.44 625.629 69.36C625.575 69.7867 625.549 70.32 625.549 70.96C625.549 71.8667 625.842 72.8267 626.429 73.84C626.962 74.8533 627.575 75.4667 628.269 75.68C628.429 75.7333 628.722 75.76 629.149 75.76C631.175 75.76 632.642 75.36 633.549 74.56C634.989 73.28 636.162 72.32 637.069 71.68C637.335 71.52 637.575 70.64 637.789 69.04C638.055 67.44 638.189 65.9467 638.189 64.56C638.189 63.4933 638.295 62.6667 638.509 62.08C638.775 61.4933 638.909 60.5333 638.909 59.2C638.909 57.6 638.322 56.4 637.149 55.6ZM632.349 51.2C632.669 51.1467 633.122 51.12 633.709 51.12C636.429 51.12 638.695 52 640.509 53.76C641.202 54.4533 641.789 54.72 642.269 54.56C642.322 54.56 642.402 54.56 642.509 54.56C642.615 54.5067 642.695 54.48 642.749 54.48C643.655 54.48 644.402 54.9333 644.989 55.84C645.575 56.7467 645.869 57.76 645.869 58.88C645.869 59.2533 645.842 59.5467 645.789 59.76C645.095 63.76 644.482 66.1067 643.949 66.8C643.575 67.3333 643.389 67.8133 643.389 68.24C643.389 68.6133 643.149 69.2 642.669 70C642.242 70.8 642.002 71.2533 641.949 71.36C641.895 71.4667 641.869 71.68 641.869 72C641.869 72.64 641.975 73.3867 642.189 74.24C642.455 75.0933 642.695 75.5467 642.909 75.6H643.069C643.495 75.6 644.242 75.3333 645.309 74.8C646.375 74.2133 647.015 73.76 647.229 73.44C647.389 73.12 647.682 72.96 648.109 72.96C649.015 72.96 649.602 73.3333 649.869 74.08C649.922 74.1867 649.949 74.3467 649.949 74.56C649.949 75.7333 648.989 76.9333 647.069 78.16C646.002 78.9067 644.829 79.28 643.549 79.28C641.522 79.28 640.055 78.48 639.149 76.88C638.669 76.08 638.189 75.7067 637.709 75.76C637.549 75.76 637.469 75.8667 637.469 76.08C637.469 76.2933 637.095 76.6133 636.349 77.04C634.642 77.8933 633.575 78.5067 633.149 78.88C632.775 79.1467 631.842 79.3867 630.349 79.6C630.242 79.6 630.055 79.6267 629.789 79.68C629.575 79.68 629.415 79.68 629.309 79.68C627.655 79.68 625.975 78.9067 624.269 77.36C623.575 76.72 622.989 75.6533 622.509 74.16C622.029 72.6133 621.789 71.04 621.789 69.44C621.789 69.28 621.789 69.0667 621.789 68.8C621.842 68.5333 621.869 68.3467 621.869 68.24C621.975 67.0667 622.135 66.16 622.349 65.52C622.615 64.88 622.802 64.2133 622.909 63.52C623.069 62.4533 623.309 61.76 623.629 61.44C623.949 61.1733 624.109 60.8 624.109 60.32C624.109 59.9467 624.455 59.04 625.149 57.6C625.895 56.16 626.375 55.44 626.589 55.44C626.695 55.44 626.855 55.2267 627.069 54.8C627.229 54.2667 627.949 53.5733 629.229 52.72C630.562 51.8133 631.602 51.3067 632.349 51.2ZM681.302 61.76C681.302 61.4933 681.382 61.3067 681.542 61.2C681.702 61.0933 681.995 60.4533 682.422 59.28C682.849 58.0533 683.062 57.1733 683.062 56.64C683.062 56.4267 683.009 56.32 682.902 56.32C682.689 56.32 682.315 56.6933 681.782 57.44C681.142 58.3467 680.689 58.8 680.422 58.8C680.049 58.8 679.862 59.04 679.862 59.52C679.862 60.0533 679.649 60.6667 679.222 61.36C678.795 62 678.582 62.5067 678.582 62.88C678.582 63.2 678.795 63.36 679.222 63.36C679.595 63.36 680.022 63.1733 680.502 62.8C681.035 62.3733 681.302 62.0267 681.302 61.76ZM675.302 45.92C675.462 45.92 675.729 45.52 676.102 44.72C676.475 43.8667 676.715 43.44 676.822 43.44C676.982 43.44 677.062 43.1733 677.062 42.64C677.062 42.32 677.249 41.84 677.622 41.2C677.675 41.1467 677.809 40.7733 678.022 40.08C678.235 39.3867 678.449 38.7467 678.662 38.16C678.929 37.52 679.115 37.2 679.222 37.2C679.435 37.2 679.542 36.3733 679.542 34.72C679.542 32.7467 679.435 31.5733 679.222 31.2C678.955 30.7733 678.689 30.56 678.422 30.56C678.102 30.56 677.675 30.9067 677.142 31.6C676.235 32.8267 675.382 35.36 674.582 39.2C673.942 42.1333 673.622 44.8533 673.622 47.36C673.622 48.2667 673.702 48.72 673.862 48.72C674.022 48.72 674.235 48.4267 674.502 47.84C674.822 47.2533 674.982 46.7733 674.982 46.4C674.982 46.08 675.089 45.92 675.302 45.92ZM684.102 69.04C684.102 69.2533 684.262 69.5733 684.582 70C684.955 70.3733 685.142 70.64 685.142 70.8C685.142 71.2267 685.409 71.9733 685.942 73.04C686.529 74.0533 686.982 74.6667 687.302 74.88C687.782 75.1467 688.235 75.0933 688.662 74.72C689.142 74.2933 689.675 74.1333 690.262 74.24C691.009 74.2933 691.382 74.8267 691.382 75.84C691.382 76.6933 691.035 77.4133 690.342 78C689.702 78.5333 688.902 78.8 687.942 78.8C687.302 78.8 686.555 78.6133 685.702 78.24C685.115 77.9733 684.395 77.3067 683.542 76.24C682.742 75.1733 682.342 74.4 682.342 73.92C682.342 73.6 681.915 72.5867 681.062 70.88L679.862 68.24H678.182C677.115 68.24 676.422 68.48 676.102 68.96C675.782 69.3867 675.622 70.3467 675.622 71.84C675.622 72.8533 675.462 74.0267 675.142 75.36C674.875 76.64 674.609 77.3067 674.342 77.36H674.102C673.995 77.4133 673.862 77.4667 673.702 77.52C673.542 77.5733 673.382 77.6 673.222 77.6H672.822C672.182 77.6 671.729 77.2533 671.462 76.56C671.249 75.8667 671.089 74.4533 670.982 72.32C670.715 67.5733 670.475 64.5067 670.262 63.12C670.102 61.68 669.782 60.96 669.302 60.96C668.929 60.96 668.315 61.1733 667.462 61.6C666.502 62.1333 665.089 62.4 663.222 62.4C662.369 62.4 661.835 62.2933 661.622 62.08C661.462 61.92 661.062 61.84 660.422 61.84C659.782 61.84 659.355 61.44 659.142 60.64C659.035 60.2133 658.982 59.92 658.982 59.76C658.982 59.3333 659.249 59.0667 659.782 58.96C660.315 58.8 661.382 58.72 662.982 58.72C664.582 58.72 665.595 58.6667 666.022 58.56C666.502 58.4533 667.035 58.1333 667.622 57.6C668.369 56.8533 668.742 56.4267 668.742 56.32C668.742 56.1067 668.902 55.84 669.222 55.52C669.595 55.1467 669.782 54.3467 669.782 53.12C669.782 52.4267 669.835 51.76 669.942 51.12C670.102 50.48 670.182 49.9467 670.182 49.52C670.182 48.9333 670.155 48.4533 670.102 48.08C669.889 46.8 669.889 46.0267 670.102 45.76C670.262 45.6 670.395 44.2933 670.502 41.84C670.555 39.6 670.795 38.1333 671.222 37.44C671.435 37.12 671.675 36.2667 671.942 34.88C672.262 33.44 672.582 32.5333 672.902 32.16C673.382 31.4667 673.622 31.0933 673.622 31.04C673.622 30.6667 673.889 30.0267 674.422 29.12C674.955 28.2133 675.329 27.76 675.542 27.76C675.862 27.76 676.075 27.5733 676.182 27.2C676.342 26.7733 677.035 26.64 678.262 26.8C679.969 26.9067 681.142 27.44 681.782 28.4C682.422 29.36 682.742 31.0667 682.742 33.52V34.56C682.742 36.8533 682.502 38.4533 682.022 39.36C681.542 40.2133 681.302 40.7733 681.302 41.04C681.302 41.36 680.662 42.88 679.382 45.6C678.795 46.9867 678.502 47.7333 678.502 47.84C678.502 47.9467 678.022 48.8 677.062 50.4C676.155 51.9467 675.569 52.88 675.302 53.2C674.129 54.5867 673.542 56.6133 673.542 59.28C673.542 61.7867 673.755 63.04 674.182 63.04C674.235 63.04 674.342 62.8533 674.502 62.48C674.662 61.8933 675.435 60.5867 676.822 58.56C677.942 56.8533 678.502 55.92 678.502 55.76C678.502 55.6 678.715 55.3333 679.142 54.96C679.622 54.5867 679.862 54.2933 679.862 54.08C679.862 53.8133 680.209 53.4933 680.902 53.12C681.649 52.6933 682.049 52.4267 682.102 52.32C682.209 52.0533 682.609 51.92 683.302 51.92C683.995 51.92 684.582 52.0533 685.062 52.32C685.435 52.5333 685.862 53.0933 686.342 54C686.822 54.9067 687.062 55.6267 687.062 56.16C687.062 56.32 687.009 56.4533 686.902 56.56C686.635 56.8267 686.502 57.3067 686.502 58C686.502 58.5867 686.369 59.3867 686.102 60.4C685.889 61.36 685.702 61.8933 685.542 62C685.382 62.1067 684.955 62.6933 684.262 63.76C683.569 64.7733 683.195 65.3067 683.142 65.36C683.035 65.4667 682.982 65.6 682.982 65.76C682.982 66.1333 683.169 66.7467 683.542 67.6C683.915 68.4533 684.102 68.9333 684.102 69.04ZM707.748 51.28C707.748 50.5333 708.468 50.16 709.908 50.16C710.441 50.16 710.868 50.24 711.188 50.4C711.508 50.6667 711.668 52.0533 711.668 54.56C711.668 56.4267 711.588 59.0133 711.428 62.32C711.375 63.4933 711.348 64.9067 711.348 66.56C711.348 68.2133 711.401 69.3067 711.508 69.84C711.988 72.24 712.708 73.7867 713.668 74.48C713.881 74.5867 714.121 74.64 714.388 74.64C714.868 74.64 715.321 74.5333 715.748 74.32C716.228 74.1067 716.468 73.8933 716.468 73.68C716.468 73.36 716.628 73.04 716.948 72.72C717.321 72.3467 717.855 71.52 718.548 70.24C719.241 68.9067 719.588 68.08 719.588 67.76C719.588 67.3867 719.695 67.2 719.908 67.2C720.281 67.2 720.868 66.1333 721.668 64C721.935 63.36 722.175 63.04 722.388 63.04C722.601 63.04 722.708 62.72 722.708 62.08C722.708 61.3867 722.948 60.8533 723.428 60.48C723.908 60.1067 724.148 59.68 724.148 59.2C724.148 58.8267 724.361 58.48 724.788 58.16C725.108 57.9467 725.428 57.28 725.748 56.16C726.121 55.04 726.361 54.3733 726.468 54.16C726.788 53.6267 726.948 53.1733 726.948 52.8C726.948 52.16 727.161 51.6267 727.588 51.2C728.068 50.72 728.628 50.48 729.268 50.48C730.388 50.48 730.948 50.9867 730.948 52C730.948 52.48 730.815 53.2533 730.548 54.32C730.015 56.9333 729.668 59.0667 729.508 60.72C729.241 63.3333 728.975 65.0933 728.708 66C728.441 66.9067 728.308 68.1867 728.308 69.84V72.56C728.308 74.5867 728.495 75.6 728.868 75.6C729.188 75.6 729.348 75.52 729.348 75.36C729.348 75.2 729.828 74.5867 730.788 73.52C731.535 72.6133 732.068 72.16 732.388 72.16C732.441 72.16 732.575 72.2133 732.788 72.32C733.375 72.64 733.668 73.3067 733.668 74.32C733.668 74.8533 733.535 75.3867 733.268 75.92C732.948 76.6667 732.681 77.04 732.468 77.04C732.255 77.04 732.041 77.3067 731.828 77.84C731.668 78.32 731.188 78.7733 730.388 79.2C729.641 79.5733 728.921 79.76 728.228 79.76C727.321 79.76 726.361 78.9333 725.348 77.28C724.761 76.3733 724.468 75.0133 724.468 73.2V69.84C724.468 68.08 724.308 67.2 723.988 67.2C723.615 67.2 723.428 67.52 723.428 68.16C723.428 68.6933 723.268 69.2 722.948 69.68C722.681 70.16 722.388 70.4 722.068 70.4C721.801 70.4 721.668 70.56 721.668 70.88C721.668 71.4133 721.321 72.2667 720.628 73.44C719.935 74.6133 719.161 75.6533 718.308 76.56C717.508 77.4133 716.948 77.9467 716.628 78.16C716.308 78.32 715.748 78.4 714.948 78.4C713.401 78.4 712.148 78.0267 711.188 77.28C710.228 76.48 709.321 75.12 708.468 73.2C708.095 72.2933 707.828 71.2533 707.668 70.08C707.561 68.9067 707.455 66.3733 707.348 62.48C707.348 62.2133 707.321 62.08 707.268 62.08L706.628 62.72C706.521 62.88 706.281 63.2 705.908 63.68C705.535 64.1067 705.268 64.4267 705.108 64.64C704.948 64.8 704.735 65.04 704.468 65.36C704.255 65.68 704.068 65.92 703.908 66.08C703.801 66.1867 703.615 66.32 703.348 66.48C703.135 66.64 702.868 66.7467 702.548 66.8C702.281 66.8533 701.935 66.88 701.508 66.88H700.868C700.548 66.88 700.388 66.4 700.388 65.44C700.388 64.7467 700.495 64.4 700.708 64.4C700.921 64.4 701.108 64.1867 701.268 63.76C701.375 63.28 701.908 62.56 702.868 61.6C703.775 60.6933 704.228 60.0267 704.228 59.6C704.228 59.3333 704.441 58.88 704.868 58.24C705.135 57.92 705.401 57.4133 705.668 56.72C705.988 56.0267 706.281 55.2533 706.548 54.4C706.868 53.5467 707.081 52.9867 707.188 52.72C707.561 51.8667 707.748 51.3867 707.748 51.28ZM751.374 56C751.48 56 751.614 55.6 751.774 54.8C751.934 54 752.094 53.6 752.254 53.6C752.467 53.6 752.627 53.3333 752.734 52.8C754.547 48.2667 755.48 45.8667 755.534 45.6C755.747 44.8533 755.934 44.48 756.094 44.48C756.254 44.48 756.387 44.2133 756.494 43.68C756.547 43.4667 756.867 42.5867 757.454 41.04C757.88 39.76 758.174 38.32 758.334 36.72L758.574 34.4H757.454C755.854 34.4 755.054 34.8533 755.054 35.76C755.054 36.1867 754.867 36.4533 754.494 36.56C754.227 36.6667 753.987 37.0933 753.774 37.84C753.56 38.5867 753.4 38.96 753.294 38.96C753.134 38.96 752.894 39.28 752.574 39.92C752.254 40.56 752.067 41.0933 752.014 41.52C751.374 47.1733 751.054 51.2533 751.054 53.76C751.054 55.2 751.16 55.9467 751.374 56ZM755.374 31.2C756.334 30.7733 757.534 30.56 758.974 30.56C759.667 30.56 760.174 30.6133 760.494 30.72C760.974 30.88 761.347 31.3067 761.614 32C761.88 32.8 762.014 34.2133 762.014 36.24C762.014 37.9467 761.907 38.9067 761.694 39.12C761.48 39.3333 761.32 39.7867 761.214 40.48C761.107 41.1733 760.814 42.0533 760.334 43.12C759.907 44.0267 759.534 45.1467 759.214 46.48C759.054 47.1733 758.787 47.8667 758.414 48.56C758.04 49.2533 757.774 49.9733 757.614 50.72C757.507 51.68 757.267 52.2133 756.894 52.32C756.574 52.4267 756.414 52.72 756.414 53.2C756.414 53.68 756.307 53.9733 756.094 54.08C755.934 54.24 755.694 54.88 755.374 56C755.107 57.12 754.92 57.7867 754.814 58C754.547 58.3733 754.2 59.4133 753.774 61.12C753.4 62.7733 753.16 63.76 753.054 64.08C752.787 64.6133 752.654 65.0133 752.654 65.28C752.654 65.4933 752.787 66 753.054 66.8C753.107 66.96 753.187 67.28 753.294 67.76C753.4 68.1867 753.48 68.5333 753.534 68.8C753.64 69.0133 753.747 69.3333 753.854 69.76C753.96 70.1333 754.094 70.4533 754.254 70.72C754.414 70.9333 754.574 71.1733 754.734 71.44C754.947 71.6533 755.16 71.8133 755.374 71.92C755.64 72.0267 755.907 72.08 756.174 72.08C756.707 72.08 757.267 71.8133 757.854 71.28C758.494 70.7467 758.92 70.1333 759.134 69.44C759.347 68.6933 759.907 68.32 760.814 68.32C761.24 68.32 761.587 68.3467 761.854 68.4C762.44 68.56 762.734 68.96 762.734 69.6C762.734 70.2933 762.547 70.72 762.174 70.88C761.854 70.9867 761.694 71.2267 761.694 71.6C761.694 72.1333 761.267 72.8267 760.414 73.68C759.614 74.5333 758.814 75.0667 758.014 75.28C757.427 75.44 756.867 75.52 756.334 75.52C754.52 75.52 752.84 74.64 751.294 72.88C750.76 72.2933 750.414 71.9733 750.254 71.92C750.094 71.8133 749.934 71.92 749.774 72.24C748.174 74.2667 747.347 75.36 747.294 75.52C747.134 76.0533 746.867 76.32 746.494 76.32C746.174 76.32 745.88 76.56 745.614 77.04C745.347 77.4667 744.787 77.6533 743.934 77.6C742.92 77.5467 742.414 77.1733 742.414 76.48C742.414 75.7867 742.867 74.9333 743.774 73.92C744.467 73.12 745 72.3733 745.374 71.68C745.48 71.2533 745.667 71.04 745.934 71.04C746.147 71.04 746.254 70.88 746.254 70.56C746.254 70.24 746.547 69.7333 747.134 69.04C747.72 68.3467 748.014 67.7067 748.014 67.12C748.014 66.48 748.147 66.1067 748.414 66C748.627 65.84 748.734 65.28 748.734 64.32C748.734 63.2533 748.6 62.6933 748.334 62.64C747.8 62.3733 747.534 59.5467 747.534 54.16V52.4C747.64 46.3733 747.934 42.9333 748.414 42.08C748.467 41.9733 748.627 41.3067 748.894 40.08C749 39.3333 749.294 38.4267 749.774 37.36C750.254 36.24 750.627 35.6267 750.894 35.52C751.107 35.4133 751.214 35.2267 751.214 34.96C751.214 34.64 751.72 34.0267 752.734 33.12C753.747 32.2133 754.627 31.5733 755.374 31.2Z" fill="#FFF9D1"/>
</svg>
